<svg width="300" height="100" viewBox="0 0 300 100" xmlns="http://www.w3.org/2000/svg">
<defs>
  <linearGradient id="ornateGradient" x1="0%" y1="0%" x2="100%" y2="0%">
    <stop offset="0%" style="stop-color:#6366f1;stop-opacity:1" />
    <stop offset="50%" style="stop-color:#8b5cf6;stop-opacity:1" />
    <stop offset="100%" style="stop-color:#6366f1;stop-opacity:1" />
  </linearGradient>
  <filter id="ornateGlow">
    <feGaussianBlur stdDeviation="2" result="coloredBlur" />
    <feMerge>
      <feMergeNode in="coloredBlur" />
      <feMergeNode in="SourceGraphic" />
    </feMerge>
  </filter>
</defs>
<circle cx="50" cy="50" r="35" fill="none" stroke="url(#ornateGradient)" stroke-width="1" opacity="0.5" />
<g transform="translate(30, 25)" filter="url(#ornateGlow)">
  <path d="M 20 5 L 10 15 L 10 30 L 20 40 L 30 30 L 30 15 Z" fill="none" stroke="url(#ornateGradient)" stroke-width="3" stroke-linejoin="round" />
  <path d="M 10 15 L 20 25 L 30 15 M 20 25 L 20 40" fill="none" stroke="url(#ornateGradient)" stroke-width="2.5" stroke-linecap="round" stroke-linejoin="round" />
  <circle cx="20" cy="15" r="3" fill="url(#ornateGradient)" />
  <circle cx="10" cy="15" r="2" fill="url(#ornateGradient)" />
  <circle cx="30" cy="15" r="2" fill="url(#ornateGradient)" />
</g>
<path d="M 5 50 Q 15 40 25 50 T 45 50" fill="none" stroke="url(#ornateGradient)" stroke-width="1" opacity="0.3" />
<path d="M 55 50 Q 65 60 75 50 T 95 50" fill="none" stroke="url(#ornateGradient)" stroke-width="1" opacity="0.3" />
<text x="100" y="60" font-family="Georgia, serif" font-size="40" font-weight="400" fill="url(#ornateGradient)" filter="url(#ornateGlow)">Kuuzuki</text>
<path d="M 240 50 Q 250 40 260 50 T 280 50" fill="none" stroke="url(#ornateGradient)" stroke-width="1" opacity="0.3" />
<circle cx="290" cy="50" r="3" fill="url(#ornateGradient)" opacity="0.5" />
</svg>